PathFileType	4	(X/Y/Z)	 s05c0402.trc
DataRate	CameraRate	NumFrames	NumMarkers	Units	OrigDataRate	OrigDataStartFrame	OrigNumFrames
200	200	4	50	mm	200	251	2000
Frame#	Time	racr			lacr			c7			jug			rlel			rdr			llel			ldr			s2			lic			ric			lasi			rasi			rpsi			lpsi			rgt			lgt			rth1			rth2			rth3			rth4			rlfc			rmfc			rsh1			rsh2			rsh3			rsh4			rlmal			rmmal			rcal			rtoe			rmt5			lth1			lth2			lth4			lth3			llfc			lmfc			lsh1			lsh2			lsh3			lsh4			llmal			lmmal			lcal			ltoe			lmt5			SBIKE			LBIKE			RBIKE			
		X1	Y1	Z1	X2	Y2	Z2	X3	Y3	Z3	X4	Y4	Z4	X5	Y5	Z5	X6	Y6	Z6	X7	Y7	Z7	X8	Y8	Z8	X9	Y9	Z9	X10	Y10	Z10	X11	Y11	Z11	X12	Y12	Z12	X13	Y13	Z13	X14	Y14	Z14	X15	Y15	Z15	X16	Y16	Z16	X17	Y17	Z17	X18	Y18	Z18	X19	Y19	Z19	X20	Y20	Z20	X21	Y21	Z21	X22	Y22	Z22	X23	Y23	Z23	X24	Y24	Z24	X25	Y25	Z25	X26	Y26	Z26	X27	Y27	Z27	X28	Y28	Z28	X29	Y29	Z29	X30	Y30	Z30	X31	Y31	Z31	X32	Y32	Z32	X33	Y33	Z33	X34	Y34	Z34	X35	Y35	Z35	X36	Y36	Z36	X37	Y37	Z37	X38	Y38	Z38	X39	Y39	Z39	X40	Y40	Z40	X41	Y41	Z41	X42	Y42	Z42	X43	Y43	Z43	X44	Y44	Z44	X45	Y45	Z45	X46	Y46	Z46	X47	Y47	Z47	X48	Y48	Z48	X49	Y49	Z49	X50	Y50	Z50	
251	1.2550	394.785705	1394.672973	-125.039793	402.017252	1403.867284	-419.633061	384.934017	1476.948028	-273.331349	363.920965	1320.423422	-274.238093	491.265474	1153.835766	-25.060475	681.057500	966.351394	-61.533393	473.878575	1149.539822	-531.393105	684.592140	972.489830	-479.480049	-109.151227	1152.959261	-272.124359	36.908105	1174.184866	-412.073551	32.061957	1195.928016	-133.096040	90.730531	1127.475424	-375.569770	79.680079	1137.701020	-157.078999	-83.009460	1200.228459	-231.984562	-78.248708	1202.568975	-319.230156	2.727947	1071.914852	-94.248557	-25.748725	1062.240959	-436.706108	104.921850	1027.848617	-75.430515	193.057610	1021.943502	-66.136902	265.199301	971.404229	-61.668138	205.647227	1055.012095	-77.985014	409.640315	905.054170	-80.032581	403.123449	901.889290	-191.653762	339.312135	817.129547	-65.072668	321.173158	731.225409	-80.839280	265.705934	666.568335	-90.431023	349.596255	721.904991	-104.912414	209.679409	548.549399	-108.704209	228.787025	580.181440	-186.276779	136.519936	523.700115	-158.700032	426.671127	469.147815	-145.397853	322.020522	457.300119	-82.582441	49.118442	941.557130	-456.966898	114.313677	885.581565	-458.271230	144.952275	903.775585	-446.046706	142.324977	799.378084	-460.439142	204.819158	663.303403	-433.895483	196.446822	652.904110	-325.033493	119.751255	565.072614	-455.742786	94.868229	481.912205	-442.946036	29.867812	421.561864	-439.756689	122.685575	468.140691	-420.173387	-26.267152	310.089927	-429.936805	4.856670	333.680450	-353.760027	-94.825695	278.166029	-385.599386	191.125709	211.109544	-396.802844	79.899686	203.684896	-458.160994	-259.356174	897.348781	-280.603075	-43.587981	84.902823	-475.132830	-51.963296	80.110062	-77.516752	
252	1.2600	394.679535	1394.600758	-124.878114	402.008510	1403.829348	-419.447600	384.897019	1476.899462	-273.161846	363.867166	1320.370074	-274.088117	491.260197	1153.802844	-25.036709	681.018729	966.301304	-61.583917	473.888194	1149.586835	-531.325901	684.550327	972.485632	-479.295628	-109.191841	1152.919768	-272.103464	36.878924	1174.178898	-412.038902	32.017709	1195.814211	-133.056399	90.700336	1127.439029	-375.522148	79.618967	1137.693544	-157.045240	-83.079851	1200.176007	-231.978920	-78.279454	1202.544337	-319.228625	2.678474	1071.943991	-94.203154	-25.798603	1062.184200	-436.680698	104.904816	1027.941969	-75.389930	193.052937	1022.113156	-66.136371	265.213964	971.618591	-61.643257	205.620209	1055.191253	-78.009228	409.712492	905.388131	-80.065656	403.165348	902.204685	-191.677746	339.258897	817.526544	-65.117865	321.066230	731.721220	-80.874957	265.567529	666.999386	-90.464500	349.500738	722.415065	-104.963344	209.467919	549.095739	-108.737951	228.511075	580.910394	-186.380684	136.291027	524.336701	-158.724122	426.346767	469.400288	-145.386083	321.746446	457.597905	-82.600879	49.026457	941.467072	-456.942640	114.180269	885.462064	-458.235778	144.811023	903.614749	-446.015748	142.135431	799.242886	-460.387536	204.576524	663.155954	-433.858168	196.246754	652.793841	-325.023809	119.623502	564.846040	-455.742901	94.873868	481.627216	-442.925801	29.957885	421.144294	-439.751076	122.687843	467.912552	-420.160919	-26.070228	309.653501	-429.931400	5.072360	333.326565	-353.779801	-94.559503	277.746501	-385.589366	191.470221	210.818143	-396.806003	80.242074	203.316090	-458.155363	-259.329216	897.340891	-280.660490	-43.588955	84.910412	-475.128343	-51.958487	80.071494	-77.552578	
253	1.2650	394.573572	1394.539853	-124.712342	401.998073	1403.814826	-419.289145	384.882506	1476.870602	-273.005388	363.852991	1320.294370	-273.950178	491.259534	1153.753051	-25.067150	680.985926	966.266645	-61.624044	473.920335	1149.640074	-531.228478	684.517751	972.486018	-479.138165	-109.243232	1152.881304	-272.078644	36.886409	1174.160854	-412.001783	31.945759	1195.735595	-132.977403	90.681870	1127.400680	-375.464950	79.550715	1137.662433	-156.969388	-83.134470	1200.147178	-231.975463	-78.318565	1202.507844	-319.194757	2.636147	1071.950638	-94.176746	-25.832839	1062.147144	-436.644858	104.895648	1028.049436	-75.383345	193.048559	1022.331770	-66.155819	265.267351	971.806735	-61.645430	205.591268	1055.381325	-78.012977	409.799371	905.747983	-80.098020	403.182349	902.536065	-191.678649	339.223740	817.928127	-65.155068	320.967095	732.181252	-80.892430	265.402388	667.485806	-90.509706	349.388503	722.780147	-104.962922	209.291484	549.590552	-108.786805	228.349275	581.394334	-186.395249	136.088304	524.835559	-158.744267	426.031768	469.624446	-145.416629	321.472901	457.919934	-82.611468	48.919662	941.392148	-456.924151	114.055179	885.347465	-458.204661	144.675758	903.444888	-445.981453	141.904242	799.085703	-460.328133	204.335593	663.019759	-433.842267	196.049003	652.676132	-324.985387	119.518543	564.631299	-455.742764	94.877349	481.339521	-442.923785	30.055069	420.791301	-439.739583	122.698426	467.726057	-420.144038	-25.864789	309.152990	-429.895686	5.296795	333.002284	-353.748798	-94.293632	277.230216	-385.574430	191.777720	210.545335	-396.803646	80.552267	202.987067	-458.143896	-259.438494	897.341393	-280.557795	-43.596176	84.893244	-475.121545	-51.952855	80.101347	-77.534050	
254	1.2700	394.493829	1394.456558	-124.574340	401.995080	1403.797923	-419.167964	384.820187	1476.830721	-272.805528	363.805405	1320.228792	-273.809048	491.241838	1153.698089	-25.114848	680.963912	966.245637	-61.576896	473.937854	1149.677048	-531.102389	684.476334	972.483570	-479.009533	-109.301482	1152.874308	-272.080562	36.872247	1174.131800	-411.946522	31.870020	1195.663027	-132.928538	90.678852	1127.355219	-375.406170	79.487693	1137.646172	-156.926035	-83.203357	1200.131706	-231.960578	-78.365123	1202.489753	-319.152571	2.582044	1071.960466	-94.149945	-25.882017	1062.098409	-436.604560	104.896445	1028.136625	-75.378018	193.058431	1022.544822	-66.172872	265.307683	972.050483	-61.629777	205.560019	1055.616107	-78.028110	409.828152	906.129590	-80.141395	403.192039	902.847458	-191.744809	339.157836	818.411705	-65.209334	320.848650	732.488860	-80.931615	265.248820	667.965234	-90.573430	349.291247	723.096333	-104.982210	209.140084	550.075568	-108.853355	228.276719	581.714783	-186.391188	135.891451	525.413327	-158.781792	425.737902	469.839208	-145.399410	321.152174	458.287758	-82.624514	48.820734	941.309724	-456.900088	113.912878	885.207051	-458.184194	144.537055	903.326137	-445.976178	141.703608	798.973095	-460.314203	204.099841	662.904500	-433.840037	195.876870	652.560413	-324.977149	119.414561	564.410815	-455.736711	94.874222	481.117059	-442.920842	30.136103	420.457600	-439.746385	122.703453	467.528493	-420.136511	-25.633887	308.724790	-429.873993	5.424422	332.642207	-353.716000	-94.031113	276.736695	-385.596490	192.061463	210.298783	-396.812965	80.870345	202.637464	-458.155003	-259.385774	897.330125	-280.499411	-43.591239	84.903468	-475.122829	-51.959361	80.085958	-77.534076	
